{
  "asset": {
    "generator": "gltfeditor.com",
    "version": "2.0"
  },
  "buffers": [
    {
      "uri": "data:application/octet-stream;base64,",
      "byteLength": 113760
    },
    {
      "uri": "data:application/octet-stream;base64,",
      "byteLength": 395424
    },
    {
      "uri": "data:application/octet-stream;base64,",
      "byteLength": 28944
    },
    {
      "uri": "data:application/octet-stream;base64,",
      "byteLength": 28080
    }
  ],
  "bufferViews": [
    {
      "buffer": 0,
      "byteOffset": 0,
      "byteLength": 113760,
      "target": 34962,
      "byteStride": 12
    },
    {
      "buffer": 1,
      "byteOffset": 0,
      "byteLength": 395424,
      "target": 34962,
      "byteStride": 12
    },
    {
      "buffer": 2,
      "byteOffset": 0,
      "byteLength": 28944,
      "target": 34962,
      "byteStride": 12
    },
    {
      "buffer": 3,
      "byteOffset": 0,
      "byteLength": 28080,
      "target": 34962,
      "byteStride": 12
    }
  ],
  "accessors": [
    {
      "bufferView": 0,
      "byteOffset": 0,
      "componentType": 5126,
      "normalized": false,
      "count": 9480,
      "max": [
        10.54562759399414,
        5,
        5.352653503417969
      ],
      "min": [
        -17.753501892089844,
        -5,
        -29.447731018066406
      ],
      "type": "VEC3"
    },
    {
      "bufferView": 1,
      "byteOffset": 0,
      "componentType": 5126,
      "normalized": false,
      "count": 32952,
      "max": [
        19.50273895263672,
        5,
        22.66666603088379
      ],
      "min": [
        -20.666015625,
        -5,
        -31.771682739257812
      ],
      "type": "VEC3"
    },
    {
      "bufferView": 2,
      "byteOffset": 0,
      "componentType": 5126,
      "normalized": false,
      "count": 2412,
      "max": [
        16.666725158691406,
        5,
        -14.351646423339844
      ],
      "min": [
        5.480663299560547,
        -5,
        -25.696563720703125
      ],
      "type": "VEC3"
    },
    {
      "bufferView": 3,
      "byteOffset": 0,
      "componentType": 5126,
      "normalized": false,
      "count": 2340,
      "max": [
        16.606300354003906,
        5,
        1.0306663513183594
      ],
      "min": [
        5.5676116943359375,
        -5,
        -9.624469757080078
      ],
      "type": "VEC3"
    }
  ],
  "scene": 0,
  "scenes": [
    {
      "nodes": [
        0,
        1,
        2,
        3
      ],
      "name": "untitled"
    }
  ],
  "nodes": [
    {
      "mesh": 0
    },
    {
      "mesh": 1
    },
    {
      "mesh": 2
    },
    {
      "mesh": 3
    }
  ],
  "meshes": [
    {
      "primitives": [
        {
          "attributes": {
            "POSITION": 0
          },
          "material": 0,
          "mode": 4
        }
      ]
    },
    {
      "primitives": [
        {
          "attributes": {
            "POSITION": 1
          },
          "material": 1,
          "mode": 4
        }
      ]
    },
    {
      "primitives": [
        {
          "attributes": {
            "POSITION": 2
          },
          "material": 2,
          "mode": 4
        }
      ]
    },
    {
      "primitives": [
        {
          "attributes": {
            "POSITION": 3
          },
          "material": 3,
          "mode": 4
        }
      ]
    }
  ],
  "materials": [
    {
      "pbrMetallicRoughness": {
        "baseColorFactor": [
          1,
          0.6078431372549019,
          0,
          1
        ],
        "metallicFactor": 1,
        "roughnessFactor": 0.4000000059604645
      },
      "emissiveFactor": [
        0,
        0,
        0
      ],
      "alphaMode": "BLEND",
      "doubleSided": true
    },
    {
      "pbrMetallicRoughness": {
        "baseColorFactor": [
          1,
          1,
          1,
          1
        ],
        "metallicFactor": 1,
        "roughnessFactor": 0.4000000059604645
      },
      "emissiveFactor": [
        0,
        0,
        0
      ],
      "alphaMode": "OPAQUE",
      "doubleSided": true
    },
    {
      "pbrMetallicRoughness": {
        "baseColorFactor": [
          1,
          0.9647058823529412,
          0.6470588235294118,
          1
        ],
        "metallicFactor": 1,
        "roughnessFactor": 0.4000000059604645
      },
      "emissiveFactor": [
        0,
        0,
        0
      ],
      "alphaMode": "OPAQUE",
      "doubleSided": true
    },
    {
      "pbrMetallicRoughness": {
        "baseColorFactor": [
          0.8549019607843137,
          0.6274509803921569,
          0.23921568627450981,
          1
        ],
        "metallicFactor": 1,
        "roughnessFactor": 0.4000000059604645
      },
      "emissiveFactor": [
        0,
        0,
        0
      ],
      "alphaMode": "OPAQUE",
      "doubleSided": true
    }
  ]
}